<svg width="80" height="80" viewBox="0 0 80 80" fill="none" xmlns="http://www.w3.org/2000/svg">
<g id="add_chart">
<mask id="mask0_452_250" style="mask-type:alpha" maskUnits="userSpaceOnUse" x="0" y="0" width="80" height="80">
<rect id="Bounding box" width="80" height="80" fill="#D9D9D9"/>
</mask>
<g mask="url(#mask0_452_250)">
<path id="add_chart_2" d="M16.6667 70C14.8333 70 13.2639 69.3472 11.9583 68.0417C10.6528 66.7361 10 65.1667 10 63.3333V16.6667C10 14.8333 10.6528 13.2639 11.9583 11.9583C13.2639 10.6528 14.8333 10 16.6667 10H46.6667V16.6667H16.6667V63.3333H63.3333V33.3333H70V63.3333C70 65.1667 69.3472 66.7361 68.0417 68.0417C66.7361 69.3472 65.1667 70 63.3333 70H16.6667ZM23.3333 56.6667H30V33.3333H23.3333V56.6667ZM36.6667 56.6667H43.3333V23.3333H36.6667V56.6667ZM50 56.6667H56.6667V43.3333H50V56.6667ZM56.6667 30V23.3333H50V16.6667H56.6667V10H63.3333V16.6667H70V23.3333H63.3333V30H56.6667Z" fill="#1C1B1F"/>
</g>
</g>
</svg>
