<svg width="81" height="80" viewBox="0 0 81 80" fill="none" xmlns="http://www.w3.org/2000/svg">
<g id="data_loss_prevention">
<mask id="mask0_452_221" style="mask-type:alpha" maskUnits="userSpaceOnUse" x="0" y="0" width="81" height="80">
<rect id="Bounding box" x="0.5" width="80" height="80" fill="#D9D9D9"/>
</mask>
<g mask="url(#mask0_452_221)">
<path id="data_loss_prevention_2" d="M37.1667 33.3333C39 33.3333 40.5694 32.6805 41.875 31.375C43.1806 30.0694 43.8333 28.5 43.8333 26.6666C43.8333 24.8333 43.1806 23.2638 41.875 21.9583C40.5694 20.6527 39 20 37.1667 20C35.3333 20 33.7639 20.6527 32.4583 21.9583C31.1528 23.2638 30.5 24.8333 30.5 26.6666C30.5 28.5 31.1528 30.0694 32.4583 31.375C33.7639 32.6805 35.3333 33.3333 37.1667 33.3333ZM37.1667 46.6666C39.6667 46.6666 42.0139 46.1388 44.2083 45.0833C46.4028 44.0277 48.3056 42.5277 49.9167 40.5833C47.9722 39.3055 45.9306 38.3333 43.7917 37.6666C41.6528 37 39.4444 36.6666 37.1667 36.6666C34.8889 36.6666 32.6806 37 30.5417 37.6666C28.4028 38.3333 26.3611 39.3055 24.4167 40.5833C26.0278 42.5277 27.9306 44.0277 30.125 45.0833C32.3194 46.1388 34.6667 46.6666 37.1667 46.6666ZM69.1667 70L53.5 54.3333C51.2222 56.1111 48.7083 57.5 45.9583 58.5C43.2083 59.5 40.2778 60 37.1667 60C29.7222 60 23.4167 57.4166 18.25 52.25C13.0833 47.0833 10.5 40.7777 10.5 33.3333C10.5 25.8888 13.0833 19.5833 18.25 14.4166C23.4167 9.24996 29.7222 6.66663 37.1667 6.66663C44.6111 6.66663 50.9167 9.24996 56.0833 14.4166C61.25 19.5833 63.8333 25.8888 63.8333 33.3333C63.8333 36.4444 63.3333 39.375 62.3333 42.125C61.3333 44.875 59.9444 47.3888 58.1667 49.6666L73.8333 65.3333L69.1667 70ZM37.1667 53.3333C42.7222 53.3333 47.4444 51.3888 51.3333 47.5C55.2222 43.6111 57.1667 38.8888 57.1667 33.3333C57.1667 27.7777 55.2222 23.0555 51.3333 19.1666C47.4444 15.2777 42.7222 13.3333 37.1667 13.3333C31.6111 13.3333 26.8889 15.2777 23 19.1666C19.1111 23.0555 17.1667 27.7777 17.1667 33.3333C17.1667 38.8888 19.1111 43.6111 23 47.5C26.8889 51.3888 31.6111 53.3333 37.1667 53.3333Z" fill="#1C1B1F"/>
</g>
</g>
</svg>
