<svg width="80" height="80" viewBox="0 0 80 80" fill="none" xmlns="http://www.w3.org/2000/svg">
<g id="zoom_in_map">
<mask id="mask0_452_259" style="mask-type:alpha" maskUnits="userSpaceOnUse" x="0" y="0" width="80" height="80">
<rect id="Bounding box" width="80" height="80" fill="#D9D9D9"/>
</mask>
<g mask="url(#mask0_452_259)">
<path id="zoom_in_map_2" d="M13.0007 71.6666L8.33398 66.9999L18.6673 56.6666H10.0007V49.9999H30.0007V69.9999H23.334V61.3333L13.0007 71.6666ZM67.0007 71.6666L56.6673 61.3333V69.9999H50.0006V49.9999H70.0006V56.6666H61.334L71.6673 66.9999L67.0007 71.6666ZM10.0007 29.9999V23.3333H18.6673L8.33398 12.9999L13.0007 8.33325L23.334 18.6666V9.99992H30.0007V29.9999H10.0007ZM50.0006 29.9999V9.99992H56.6673V18.6666L67.0007 8.33325L71.6673 12.9999L61.334 23.3333H70.0006V29.9999H50.0006Z" fill="#1C1B1F"/>
</g>
</g>
</svg>
